<?xml version="1.0" encoding="UTF-8"?>
<svg version="1.1" xmlns="http://www.w3.org/2000/svg" width="1647" height="1917">
<path d="M0 0 C2.148956 0.26527085 4.29903574 0.51968487 6.44940186 0.77325439 C50.24336766 6.00432858 93.15508511 15.47591264 135.05145264 29.25323486 C136.15682373 29.61530029 137.26219482 29.97736572 138.40106201 30.35040283 C170.48398693 40.94157612 202.24285248 53.88563553 231.91326904 70.0960083 C234.00360181 71.22733707 236.10714394 72.32757119 238.21942139 73.41729736 C275.34349999 92.60733446 309.94483806 116.59291103 342.36444092 142.88653564 C343.92142732 144.14789742 345.48422937 145.40207149 347.04754639 146.65557861 C352.71012908 151.22580493 358.14352645 155.98867817 363.49676514 160.91729736 C365.67087362 162.90524365 367.87568039 164.83856825 370.11395264 166.75323486 C374.14602547 170.24934709 377.85337305 174.04047742 381.60223389 177.83526611 C384.36158859 180.55941374 387.24518236 183.08665117 390.18426514 185.61260986 C394.56997804 189.46616513 398.56115926 193.6409893 402.36395264 198.06573486 C405.08038444 201.22578976 407.94561379 204.15400356 410.92645264 207.06573486 C415.21548547 211.30293648 419.01631227 215.76708797 422.77410889 220.47589111 C425.08512804 223.29430384 427.50666826 225.96006959 429.98895264 228.62823486 C434.89740573 233.97467301 439.31326788 239.62737472 443.66815186 245.4241333 C445.14791817 247.38078866 446.64642102 249.32194599 448.14910889 251.26104736 C470.33214804 279.92789769 489.61303055 310.49629796 507.05145264 342.25323486 C507.84422607 343.6966626 507.84422607 343.6966626 508.65301514 345.16925049 C546.77981739 415.17794772 570.38684286 494.26992188 583.25457764 630.16729736 C583.26164075 631.65930208 583.26877344 633.15130647 583.27597046 634.64331055 C583.29550792 639.38829033 583.30066274 644.13321862 583.30145264 648.87823486 C583.30174721 649.68706367 583.30204178 650.49589249 583.30234528 651.32923126 C583.30371825 674.65642947 583.26572831 697.87206731 580.33007812 721.05078125 C580.02875872 723.43262371 579.73907691 725.81575038 579.44940186 728.19903564 C569.64767668 807.75872388 546.42063746 887.55131794 507.37664795 957.86505127 C505.84469188 960.62584609 504.33592988 963.39890825 502.82489014 966.17120361 C495.10737682 980.23150755 486.83543659 993.83658186 478.05145264 1007.25323486 C477.3179659 1008.38708185 476.58483056 1009.52115634 475.85223389 1010.65557861 C470.36108092 1019.04771806 464.4250288 1027.12614169 458.52020264 1035.22930908 C457.30172828 1036.90835703 456.09669992 1038.59715309 454.89520264 1040.28839111 C449.45720164 1047.92693913 443.5332374 1055.14862161 437.58074951 1062.38751221 C436.23448627 1064.02993617 434.89984904 1065.68187518 433.56707764 1067.33526611 C429.02321441 1072.96675618 424.29210984 1078.37095316 419.39129639 1083.69464111 C417.38239416 1085.8913539 415.42631151 1088.11872856 413.48895264 1090.37823486 C410.24793135 1094.11494176 406.75885626 1097.56214751 403.23895264 1101.03448486 C401.25424922 1103.04754119 399.39048347 1105.10769889 397.55145264 1107.25323486 C391.8792679 1113.84240096 385.66998897 1119.79969489 379.07098389 1125.44854736 C376.86141095 1127.42305935 374.80642315 1129.50568077 372.73895264 1131.62823486 C368.68707852 1135.73570931 364.36580964 1139.33924926 359.86395264 1142.94073486 C357.03615812 1145.26581036 354.35657746 1147.6975955 351.67645264 1150.19073486 C346.8048601 1154.66845396 341.69182495 1158.72145273 336.41473389 1162.69854736 C334.17412193 1164.38793372 331.96662308 1166.10934523 329.78192139 1167.87042236 C320.97353036 1174.9597877 311.77179031 1181.348431 302.39373779 1187.65924072 C299.9410644 1189.32835732 297.51476041 1191.03140974 295.09051514 1192.74151611 C225.10083887 1241.85589319 142.76924218 1274.63703889 5.18505859 1300.00323486 C3.13915014 1300.24295913 1.09507456 1300.49478547 -0.94903564 1300.74932861 C-46.2460752 1306.18205495 -95.47670125 1306.26535795 -140.74609375 1300.53186035 C-143.12793621 1300.23054094 -145.51106288 1299.94085913 -147.89434814 1299.65118408 C-226.62651312 1289.95140948 -305.79504463 1267.18485976 -375.44659424 1228.63311768 C-378.35913607 1227.02678606 -381.28687216 1225.44969294 -384.21417236 1223.87042236 C-405.59561471 1212.25292036 -426.09346192 1199.32345533 -445.94854736 1185.25323486 C-446.66558838 1184.74727783 -447.38262939 1184.2413208 -448.12139893 1183.72003174 C-458.12362051 1176.64497513 -467.84381057 1169.30500566 -477.33673096 1161.56085205 C-479.62524067 1159.70425435 -481.94525367 1157.88811684 -484.26104736 1156.06573486 C-488.46126331 1152.71110695 -492.43188814 1149.14551033 -496.39776611 1145.51885986 C-498.93097979 1143.26883853 -501.54110762 1141.16678532 -504.19854736 1139.06573486 C-509.47980984 1134.80326912 -514.20114959 1130.11325124 -518.95172119 1125.28155518 C-522.57829624 1121.59821285 -526.28374932 1118.10492469 -530.22198486 1114.75323486 C-534.57658621 1110.97005179 -538.50476207 1106.81136588 -542.26104736 1102.44073486 C-544.97747917 1099.28067997 -547.84270851 1096.35246617 -550.82354736 1093.44073486 C-555.11258019 1089.20353325 -558.91340699 1084.73938176 -562.67120361 1080.03057861 C-564.98222277 1077.21216589 -567.40376298 1074.54640013 -569.88604736 1071.87823486 C-574.79818946 1066.52777855 -579.21617015 1060.8704292 -583.57403564 1055.06915283 C-585.0260477 1053.15084631 -586.49850786 1051.24971786 -587.97589111 1049.35089111 C-600.48658316 1033.23366853 -612.05475953 1016.50097258 -622.94854736 999.25323486 C-623.58534424 998.25292236 -624.22214111 997.25260986 -624.87823486 996.22198486 C-637.02023265 976.83647766 -648.05402411 956.87239843 -657.94854736 936.25323486 C-658.29321045 935.53635498 -658.63787354 934.8194751 -658.99298096 934.08087158 C-660.72792454 930.45441413 -662.41925857 926.81029946 -664.08135986 923.14971924 C-665.02355995 921.08918706 -665.98591573 919.03867158 -666.94854736 916.98760986 C-700.22807592 845.41621121 -718.58312678 766.06497507 -723.15167236 669.67901611 C-723.15873923 668.23337269 -723.16587189 666.78772959 -723.17306519 665.34208679 C-723.19257542 660.7499642 -723.19775733 656.15789503 -723.19854736 651.56573486 C-723.19898922 650.39020805 -723.19898922 650.39020805 -723.19944 649.19093323 C-723.20088265 625.42508839 -722.93724944 601.86126311 -719.94854736 578.25323486 C-719.79935852 577.04479919 -719.79935852 577.04479919 -719.64715576 575.81195068 C-708.00696292 481.6811427 -678.08383859 389.9934852 -581.22247314 242.86358643 C-580.0733639 241.41101368 -578.93049227 239.95351172 -577.78839111 238.49542236 C-573.78033633 233.41164711 -569.57889909 228.57667971 -565.21026611 223.80010986 C-562.98063408 221.28936706 -560.90222471 218.70210614 -558.82354736 216.06573486 C-554.39353836 210.57501947 -549.49081374 205.65129447 -544.44024658 200.73101807 C-541.31679275 197.67747996 -538.3291716 194.58817426 -535.48760986 191.26885986 C-531.90217439 187.10933207 -527.99322206 183.39835334 -523.94854736 179.69073486 C-519.99020188 176.03950239 -516.05373478 172.38987063 -512.27276611 168.55401611 C-509.57438438 165.83233955 -506.77541184 163.37733898 -503.76104736 161.00323486 C-499.71565837 157.75257441 -495.85703969 154.36431259 -492.07354736 150.81573486 C-486.58030409 145.69993057 -480.75584397 141.10789213 -474.74835205 136.6116333 C-472.83543237 135.16786158 -470.9415729 133.70155432 -469.05010986 132.22979736 C-436.30791416 106.80346645 -400.98548246 84.84766962 -363.94854736 66.25323486 C-362.8654126 65.70699463 -361.78227783 65.16075439 -360.6663208 64.59796143 C-291.76383717 30.03828938 -218.28744224 9.67774266 -141.94854736 0.25323486 C-140.84645935 0.11371399 -140.84645935 0.11371399 -139.72210693 -0.02862549 C-94.41704416 -5.73331961 -45.30722352 -5.60443258 0 0 Z " fill="#FE0000" transform="translate(893.9485473632813,171.74676513671875)"/>
<path d="M0 0 C240.8692422 0 240.8692422 0 273 8 C273.84788086 8.20915039 274.69576172 8.41830078 275.56933594 8.63378906 C285.07978388 11.02167756 294.0537684 13.94987387 303 18 C304.53824999 18.65685397 306.07739042 19.31162472 307.6171875 19.96484375 C323.32716939 26.71393565 337.06598141 34.78906315 350 46 C350.63035156 46.49757813 351.26070312 46.99515625 351.91015625 47.5078125 C357.45402452 51.92775304 361.68618416 57.40972528 366 63 C366.91458984 64.17369141 366.91458984 64.17369141 367.84765625 65.37109375 C389.54227418 94.67612434 394.65150816 134.09379383 389.92138672 169.49926758 C384.66451444 204.13574341 367.05167795 237.86230307 338.6875 259.1875 C325.9660073 268.01686462 312.35843737 274.32276757 298 280 C299.13953125 280.20753906 300.2790625 280.41507813 301.453125 280.62890625 C341.80627931 288.33923339 381.88039791 308.81720361 405.77807617 343.2824707 C421.01012113 365.87430625 429.96956343 390.58791246 430.23828125 418.00390625 C430.24816574 418.83635864 430.25805023 419.66881104 430.26823425 420.52648926 C430.58384801 454.0107529 426.58182691 484.2850875 410 514 C409.51015625 514.90363281 409.0203125 515.80726563 408.515625 516.73828125 C397.91955539 535.40046003 382.11280208 551.58573353 364 563 C363.33887207 563.41975098 362.67774414 563.83950195 361.99658203 564.27197266 C262.18707626 626.94197125 88.84852854 599 0 599 C0 401.33 0 203.66 0 0 Z " fill="#FFFEFE" transform="translate(626,517)"/>
<path d="M0 0 C24.151875 -0.020625 48.30375 -0.04125 73.1875 -0.0625 C84.63087036 -0.07615601 84.63087036 -0.07615601 96.30541992 -0.09008789 C105.6138916 -0.09460449 105.6138916 -0.09460449 109.97016907 -0.09544373 C113.01579007 -0.0963762 116.06139368 -0.10012702 119.10700989 -0.10557556 C122.9917607 -0.11243326 126.87648621 -0.11449138 130.76124251 -0.11307228 C132.18702003 -0.11336903 133.61279844 -0.11535277 135.03857076 -0.11921513 C136.96505376 -0.12419151 138.8915507 -0.12239259 140.81803894 -0.12025452 C142.43716832 -0.12163721 142.43716832 -0.12163721 144.08900738 -0.12304783 C146.84202263 -0.00667771 149.31742932 0.39768969 152 1 C153.56527924 1.15781418 155.13347552 1.28867789 156.703125 1.39453125 C190.7539536 3.92218725 226.50493681 14.36709146 250.16015625 40.375 C265.19084342 58.44657764 270.38011147 78.3610007 270.31567383 101.38671875 C270.31252384 103.73224881 270.33601656 106.07650072 270.36132812 108.421875 C270.47532933 135.38165366 261.80564053 160.01318602 242.9375 179.5 C232.35633389 190.06437546 219.92047367 196.78575844 206 202 C204.9469165 202.39614502 204.9469165 202.39614502 203.87255859 202.80029297 C176.55435944 212.72469828 147.3754389 213.76561763 118.65433502 213.50640106 C114.86788896 213.47715244 111.08160401 213.47654494 107.29504395 213.47302246 C96.34242914 213.44715752 85.38995333 213.37735496 74.4375 213.3125 C49.873125 213.209375 25.30875 213.10625 0 213 C0 142.71 0 72.42 0 0 Z " fill="#FF0000" transform="translate(706,836)"/>
<path d="M0 0 C19.92375 -0.061875 39.8475 -0.12375 60.375 -0.1875 C66.61196777 -0.21481201 72.84893555 -0.24212402 79.27490234 -0.27026367 C87.02856445 -0.28381348 87.02856445 -0.28381348 90.68496704 -0.28633118 C93.18050757 -0.29086814 95.67604252 -0.30126944 98.17153931 -0.31672668 C132.56794451 -0.51869513 170.0482547 1.17853934 199 22 C199.96164062 22.68707031 200.92328125 23.37414062 201.9140625 24.08203125 C217.67910064 36.13381661 227.67179448 54.71853073 230.3125 74.31958008 C233.1549678 100.27486417 229.89775797 128.15973761 213.421875 149.41796875 C197.57196818 169.03405124 177.71353668 179.25473699 153.625 185.375 C152.63910889 185.62588379 151.65321777 185.87676758 150.63745117 186.13525391 C139.70890509 188.76587768 128.93466386 189.14748296 117.72583008 189.11352539 C115.77609677 189.11370619 115.77609677 189.11370619 113.78697491 189.11389065 C110.30480467 189.11411428 106.82266954 189.10836363 103.34050751 189.10128021 C100.06013593 189.09553995 96.77976565 189.09531464 93.49938965 189.09460449 C83.93708854 189.08937942 74.37479381 189.07541816 64.8125 189.0625 C32.7303125 189.0315625 32.7303125 189.0315625 0 189 C0 126.63 0 64.26 0 0 Z " fill="#FF0101" transform="translate(706,582)"/>
<path d="M0 0 C2.148956 0.26527085 4.29903574 0.51968487 6.44940186 0.77325439 C50.24336766 6.00432858 93.15508511 15.47591264 135.05145264 29.25323486 C136.15682373 29.61530029 137.26219482 29.97736572 138.40106201 30.35040283 C170.48398693 40.94157612 202.24285248 53.88563553 231.91326904 70.0960083 C234.00360181 71.22733707 236.10714394 72.32757119 238.21942139 73.41729736 C275.34349999 92.60733446 309.94483806 116.59291103 342.36444092 142.88653564 C343.92142732 144.14789742 345.48422937 145.40207149 347.04754639 146.65557861 C352.71012908 151.22580493 358.14352645 155.98867817 363.49676514 160.91729736 C365.67087362 162.90524365 367.87568039 164.83856825 370.11395264 166.75323486 C374.14602547 170.24934709 377.85337305 174.04047742 381.60223389 177.83526611 C384.36158859 180.55941374 387.24518236 183.08665117 390.18426514 185.61260986 C394.56997804 189.46616513 398.56115926 193.6409893 402.36395264 198.06573486 C405.08038444 201.22578976 407.94561379 204.15400356 410.92645264 207.06573486 C415.21548547 211.30293648 419.01631227 215.76708797 422.77410889 220.47589111 C425.08512804 223.29430384 427.50666826 225.96006959 429.98895264 228.62823486 C434.89740573 233.97467301 439.31326788 239.62737472 443.66815186 245.4241333 C445.14791817 247.38078866 446.64642102 249.32194599 448.14910889 251.26104736 C470.33214804 279.92789769 489.61303055 310.49629796 507.05145264 342.25323486 C507.84422607 343.6966626 507.84422607 343.6966626 508.65301514 345.16925049 C546.77981739 415.17794772 570.38684286 494.26992188 583.25457764 630.16729736 C583.26164075 631.65930208 583.26877344 633.15130647 583.27597046 634.64331055 C583.29550792 639.38829033 583.30066274 644.13321862 583.30145264 648.87823486 C583.30174721 649.68706367 583.30204178 650.49589249 583.30234528 651.32923126 C583.30371825 674.65642947 583.26572831 697.87206731 580.33007812 721.05078125 C580.02875872 723.43262371 579.73907691 725.81575038 579.44940186 728.19903564 C569.64767668 807.75872388 546.42063746 887.55131794 507.37664795 957.86505127 C505.84469188 960.62584609 504.33592988 963.39890825 502.82489014 966.17120361 C495.10737682 980.23150755 486.83543659 993.83658186 478.05145264 1007.25323486 C477.3179659 1008.38708185 476.58483056 1009.52115634 475.85223389 1010.65557861 C470.36108092 1019.04771806 464.4250288 1027.12614169 458.52020264 1035.22930908 C457.30172828 1036.90835703 456.09669992 1038.59715309 454.89520264 1040.28839111 C449.45720164 1047.92693913 443.5332374 1055.14862161 437.58074951 1062.38751221 C436.23448627 1064.02993617 434.89984904 1065.68187518 433.56707764 1067.33526611 C429.02321441 1072.96675618 424.29210984 1078.37095316 419.39129639 1083.69464111 C417.38239416 1085.8913539 415.42631151 1088.11872856 413.48895264 1090.37823486 C410.24793135 1094.11494176 406.75885626 1097.56214751 403.23895264 1101.03448486 C401.25424922 1103.04754119 399.39048347 1105.10769889 397.55145264 1107.25323486 C391.8792679 1113.84240096 385.66998897 1119.79969489 379.07098389 1125.44854736 C376.86141095 1127.42305935 374.80642315 1129.50568077 372.73895264 1131.62823486 C368.68707852 1135.73570931 364.36580964 1139.33924926 359.86395264 1142.94073486 C357.03615812 1145.26581036 354.35657746 1147.6975955 351.67645264 1150.19073486 C346.8048601 1154.66845396 341.69182495 1158.72145273 336.41473389 1162.69854736 C334.17412193 1164.38793372 331.96662308 1166.10934523 329.78192139 1167.87042236 C320.97353036 1174.9597877 311.77179031 1181.348431 302.39373779 1187.65924072 C299.9410644 1189.32835732 297.51476041 1191.03140974 295.09051514 1192.74151611 C225.10083887 1241.85589319 142.76924218 1274.63703889 5.18505859 1300.00323486 C3.13915014 1300.24295913 1.09507456 1300.49478547 -0.94903564 1300.74932861 C-46.2460752 1306.18205495 -95.47670125 1306.26535795 -140.74609375 1300.53186035 C-143.12793621 1300.23054094 -145.51106288 1299.94085913 -147.89434814 1299.65118408 C-226.62651312 1289.95140948 -305.79504463 1267.18485976 -375.44659424 1228.63311768 C-378.35913607 1227.02678606 -381.28687216 1225.44969294 -384.21417236 1223.87042236 C-405.59561471 1212.25292036 -426.09346192 1199.32345533 -445.94854736 1185.25323486 C-446.66558838 1184.74727783 -447.38262939 1184.2413208 -448.12139893 1183.72003174 C-458.12362051 1176.64497513 -467.84381057 1169.30500566 -477.33673096 1161.56085205 C-479.62524067 1159.70425435 -481.94525367 1157.88811684 -484.26104736 1156.06573486 C-488.46126331 1152.71110695 -492.43188814 1149.14551033 -496.39776611 1145.51885986 C-498.93097979 1143.26883853 -501.54110762 1141.16678532 -504.19854736 1139.06573486 C-509.47980984 1134.80326912 -514.20114959 1130.11325124 -518.95172119 1125.28155518 C-522.57829624 1121.59821285 -526.28374932 1118.10492469 -530.22198486 1114.75323486 C-534.57658621 1110.97005179 -538.50476207 1106.81136588 -542.26104736 1102.44073486 C-544.97747917 1099.28067997 -547.84270851 1096.35246617 -550.82354736 1093.44073486 C-555.11258019 1089.20353325 -558.91340699 1084.73938176 -562.67120361 1080.03057861 C-564.98222277 1077.21216589 -567.40376298 1074.54640013 -569.88604736 1071.87823486 C-574.79818946 1066.52777855 -579.21617015 1060.8704292 -583.57403564 1055.06915283 C-585.0260477 1053.15084631 -586.49850786 1051.24971786 -587.97589111 1049.35089111 C-600.48658316 1033.23366853 -612.05475953 1016.50097258 -622.94854736 999.25323486 C-623.58534424 998.25292236 -624.22214111 997.25260986 -624.87823486 996.22198486 C-637.02023265 976.83647766 -648.05402411 956.87239843 -657.94854736 936.25323486 C-658.29321045 935.53635498 -658.63787354 934.8194751 -658.99298096 934.08087158 C-660.72792454 930.45441413 -662.41925857 926.81029946 -664.08135986 923.14971924 C-665.02355995 921.08918706 -665.98591573 919.03867158 -666.94854736 916.98760986 C-700.22807592 845.41621121 -718.58312678 766.06497507 -723.15167236 669.67901611 C-723.15873923 668.23337269 -723.16587189 666.78772959 -723.17306519 665.34208679 C-723.19257542 660.7499642 -723.19775733 656.15789503 -723.19854736 651.56573486 C-723.19898922 650.39020805 -723.19898922 650.39020805 -723.19944 649.19093323 C-723.20088265 625.42508839 -722.93724944 601.86126311 -719.94854736 578.25323486 C-719.79935852 577.04479919 -719.79935852 577.04479919 -719.64715576 575.81195068 C-708.00696292 481.6811427 -678.08383859 389.9934852 -581.22247314 242.86358643 C-580.0733639 241.41101368 -578.93049227 239.95351172 -577.78839111 238.49542236 C-573.78033633 233.41164711 -569.57889909 228.57667971 -565.21026611 223.80010986 C-562.98063408 221.28936706 -560.90222471 218.70210614 -558.82354736 216.06573486 C-554.39353836 210.57501947 -549.49081374 205.65129447 -544.44024658 200.73101807 C-541.31679275 197.67747996 -538.3291716 194.58817426 -535.48760986 191.26885986 C-531.90217439 187.10933207 -527.99322206 183.39835334 -523.94854736 179.69073486 C-519.99020188 176.03950239 -516.05373478 172.38987063 -512.27276611 168.55401611 C-509.57438438 165.83233955 -506.77541184 163.37733898 -503.76104736 161.00323486 C-499.71565837 157.75257441 -495.85703969 154.36431259 -492.07354736 150.81573486 C-486.58030409 145.69993057 -480.75584397 141.10789213 -474.74835205 136.6116333 C-472.83543237 135.16786158 -470.9415729 133.70155432 -469.05010986 132.22979736 C-436.30791416 106.80346645 -400.98548246 84.84766962 -363.94854736 66.25323486 C-362.8654126 65.70699463 -361.78227783 65.16075439 -360.6663208 64.59796143 C-291.76383717 30.03828938 -218.28744224 9.67774266 -141.94854736 0.25323486 C-140.84645935 0.11371399 -140.84645935 0.11371399 -139.72210693 -0.02862549 C-94.41704416 -5.73331961 -45.30722352 -5.60443258 0 0 Z M-130.82354736 6.50323486 C-132.39311188 6.65659302 -132.39311188 6.65659302 -133.99438477 6.81304932 C-163.58051964 9.78945783 -192.68518126 15.11340734 -221.63604736 21.81573486 C-222.8526001 22.09650879 -224.06915283 22.37728271 -225.3225708 22.66656494 C-233.60878642 24.61476491 -241.78565651 26.84218226 -249.94854736 29.25323486 C-250.98277832 29.55737305 -252.01700928 29.86151123 -253.08258057 30.17486572 C-277.61470242 37.45436283 -301.47734528 46.06035024 -324.94854736 56.25323486 C-326.12562256 56.76434814 -327.30269775 57.27546143 -328.51544189 57.80206299 C-342.83932531 64.04389269 -357.00667725 70.482766 -370.70489502 78.02178955 C-373.04228195 79.30468179 -375.39081358 80.56523846 -377.74151611 81.82354736 C-409.5313725 98.94043556 -439.51724425 119.030256 -467.94854736 141.25323486 C-469.12260679 142.15742598 -470.29709919 143.06105512 -471.47198486 143.96417236 C-478.00954964 149.0133885 -484.24880438 154.22904117 -490.30401611 159.85870361 C-492.94287671 162.24810028 -495.66420965 164.47350413 -498.44854736 166.69073486 C-503.44866962 170.7207906 -507.92467637 175.13070815 -512.40948486 179.71026611 C-514.46735904 181.77130625 -516.53901458 183.68882632 -518.76104736 185.56573486 C-527.26062855 192.83603778 -535.23205616 201.00746347 -542.45245361 209.54229736 C-543.99972342 211.31175996 -545.63330045 212.93297934 -547.32354736 214.56573486 C-551.06710692 218.24259403 -554.2815078 222.28462123 -557.56573486 226.37042236 C-559.91871664 229.21714458 -562.3711934 231.92417558 -564.88604736 234.62823486 C-569.85923272 240.03955247 -574.29812892 245.7449691 -578.70733643 251.61358643 C-580.71585942 254.26685952 -582.77600147 256.88002111 -584.82354736 259.50323486 C-594.46290929 271.97949761 -603.35385194 285.04088242 -611.94854736 298.25323486 C-612.39633545 298.94014404 -612.84412354 299.62705322 -613.30548096 300.33477783 C-626.38407393 320.48681213 -638.30482871 341.25982469 -648.78448486 362.87823486 C-649.82323146 364.99755679 -650.88987984 367.0974012 -651.97979736 369.19073486 C-665.42389607 395.08838639 -675.45913668 422.65047376 -684.76104736 450.25323486 C-685.10778 451.27470108 -685.10778 451.27470108 -685.46151733 452.31680298 C-688.40640476 461.0198031 -690.93372623 469.73368912 -693.07891846 478.66876221 C-693.90950161 482.09229446 -694.81790964 485.48422954 -695.76104736 488.87823486 C-704.7717727 522.72166781 -710.21035976 556.65945268 -713.49029541 591.49664307 C-713.79571047 594.7359382 -714.13511757 597.96947623 -714.49468994 601.20318604 C-716.13798691 616.5695815 -716.30738042 631.90151617 -716.2664032 647.34178543 C-716.26097275 649.46997505 -716.25859833 651.59815357 -716.25653076 653.72634888 C-716.2242687 675.04171484 -715.56020873 696.08110903 -712.94854736 717.25323486 C-712.72054187 719.23737296 -712.49254583 721.22151236 -712.26567078 723.20578003 C-709.3116932 748.81809725 -705.05479621 774.2030263 -698.94854736 799.25323486 C-698.68283936 800.36086182 -698.41713135 801.46848877 -698.14337158 802.60968018 C-694.60182643 817.34622955 -690.85853626 831.91222349 -685.94854736 846.25323486 C-685.49248043 847.59372549 -685.03642681 848.93422064 -684.5803833 850.27471924 C-678.34730869 868.55026402 -671.94417894 886.6935268 -664.1975708 904.39337158 C-662.86028478 907.45532789 -661.54845233 910.52752838 -660.23760986 913.60089111 C-655.07050713 925.6314456 -649.55895003 937.3540718 -643.26837158 948.83721924 C-641.85672362 951.4213236 -640.46617705 954.01611926 -639.07745361 956.61260986 C-622.13288497 988.17155651 -602.73207057 1018.56063455 -580.31622314 1046.53399658 C-578.90682354 1048.30568384 -577.51719956 1050.09137297 -576.13214111 1051.88214111 C-571.33274341 1058.0783474 -566.4361952 1064.06318083 -561.12042236 1069.83135986 C-558.83580637 1072.37895324 -556.70549292 1075.01446279 -554.57354736 1077.69073486 C-550.59301159 1082.61769173 -546.27085058 1087.06068086 -541.72198486 1091.45245361 C-539.58255816 1093.61297326 -537.5912489 1095.78349253 -535.60870361 1098.08135986 C-531.91835095 1102.34343609 -528.00780844 1106.34209873 -524.01104736 1110.31573486 C-523.34653564 1110.98411377 -522.68202393 1111.65249268 -521.99737549 1112.34112549 C-518.08256856 1116.24833822 -514.05799002 1119.96350977 -509.8706665 1123.57623291 C-506.88472657 1126.18139249 -504.01823976 1128.90958587 -501.13604736 1131.62823486 C-496.12080831 1136.32053818 -490.99939292 1140.79772483 -485.63604736 1145.09307861 C-482.82556988 1147.35208159 -480.07569682 1149.67363009 -477.32354736 1152.00323486 C-459.77580513 1166.6301271 -441.07106185 1179.77955249 -421.94854736 1192.25323486 C-420.76446289 1193.03005615 -420.76446289 1193.03005615 -419.55645752 1193.8225708 C-405.04932923 1203.31300836 -390.19697031 1212.0103468 -374.94854736 1220.25323486 C-373.88539307 1220.83073486 -372.82223877 1221.40823486 -371.72686768 1222.00323486 C-293.76775859 1264.12042615 -207.18069166 1287.38816031 -69.88604736 1296.50323486 C-68.62388397 1296.5087738 -67.36172058 1296.51431274 -66.06130981 1296.52001953 C-40.92217419 1296.60050529 -15.99108775 1295.25542689 8.92645264 1291.87823486 C10.60230252 1291.65678422 12.27816539 1291.43543183 13.95404053 1291.21417236 C33.58764277 1288.59326411 52.95404584 1285.0111788 72.31512451 1280.8381958 C74.79229115 1280.30863734 77.27227007 1279.79708304 79.75457764 1279.29229736 C90.8699736 1276.99221987 101.65028583 1273.82800668 112.46356201 1270.39141846 C115.04378667 1269.57289591 117.62541963 1268.76052953 120.20965576 1267.95489502 C160.52855221 1255.3706682 200.1017786 1239.88625638 237.05145264 1219.25323486 C237.95750244 1218.75227295 238.86355225 1218.25131104 239.79705811 1217.73516846 C270.02846347 1200.99911872 299.34420682 1182.2471656 326.33221436 1160.62091064 C328.10390161 1159.21151104 329.88959074 1157.82188706 331.68035889 1156.43682861 C337.87509294 1151.63857126 343.85850625 1146.74311426 349.62567139 1141.42901611 C352.19579549 1139.12376792 354.85388717 1136.97001442 357.55145264 1134.81573486 C362.16999488 1131.08311892 366.35591043 1127.0871264 370.46942139 1122.80792236 C372.52442818 1120.77467812 374.59836765 1118.89026826 376.78582764 1117.00714111 C381.43451901 1112.97794892 385.7765637 1108.67519703 390.11395264 1104.31573486 C390.87772217 1103.55583252 391.6414917 1102.79593018 392.42840576 1102.01300049 C396.59551005 1097.83876685 400.59294212 1093.57872544 404.44085693 1089.10894775 C406.86340016 1086.31771673 409.39838887 1083.63600312 411.92645264 1080.94073486 C416.43054769 1076.09844598 420.71417592 1071.1347892 424.85614014 1065.97589111 C427.12965373 1063.15624881 429.46169229 1060.39306421 431.80145264 1057.62823486 C486.01938881 992.5834972 524.67674314 915.85211927 549.45440674 835.19354248 C550.02271723 833.34662053 550.59698606 831.50153512 551.17156982 829.65655518 C561.71791747 795.54859768 567.58089111 760.60611291 572.05145264 725.25323486 C572.14104248 724.55180359 572.23063232 723.85037231 572.32293701 723.12768555 C574.56517247 705.51554649 575.80038588 688.00313654 576.05145264 670.25323486 C576.06476624 669.38984497 576.07807983 668.52645508 576.09179688 667.63690186 C576.6573531 629.84530521 574.93415603 593.18007714 569.67645264 555.75323486 C569.53569305 554.74404999 569.39493347 553.73486511 569.24990845 552.69509888 C567.18117177 538.04882679 564.36400433 523.66629453 561.05145264 509.25323486 C560.74762128 507.90620405 560.44433182 506.55905079 560.14178467 505.21173096 C543.69870291 432.81157713 514.50288893 362.08252005 473.32635498 300.17071533 C472.06732626 298.27710913 470.81829174 296.37723286 469.57098389 294.47589111 C460.40632783 280.5550789 450.84281143 266.98047829 440.41912842 253.97247314 C439.00972882 252.20078589 437.62010484 250.41509676 436.23504639 248.62432861 C431.43564869 242.42812233 426.53910047 236.4432889 421.22332764 230.67510986 C418.93871164 228.12751648 416.80839819 225.49200694 414.67645264 222.81573486 C410.69591687 217.888778 406.37375585 213.44578887 401.82489014 209.05401611 C399.68546343 206.89349647 397.69415417 204.7229772 395.71160889 202.42510986 C392.02125623 198.16303364 388.11071371 194.164371 384.11395264 190.19073486 C383.44944092 189.52235596 382.7849292 188.85397705 382.10028076 188.16534424 C378.18547383 184.2581315 374.16089529 180.54295996 369.97357178 176.93023682 C366.98763184 174.32507723 364.12114503 171.59688386 361.23895264 168.87823486 C356.22371358 164.18593155 351.10229819 159.70874489 345.73895264 155.41339111 C342.92847515 153.15438814 340.1786021 150.83283964 337.42645264 148.50323486 C319.88137582 133.87856438 301.18178363 120.71041455 282.05145264 108.25323486 C281.37517822 107.81076416 280.69890381 107.36829346 280.00213623 106.91241455 C258.52473626 92.91635 236.17942471 80.3060118 213.05145264 69.25323486 C212.36873291 68.92565186 211.68601318 68.59806885 210.98260498 68.26055908 C207.33882681 66.5188498 203.67817072 64.81819807 200.00213623 63.14532471 C197.86370548 62.16737403 195.73325298 61.17300734 193.60223389 60.17901611 C181.1386616 54.41306857 168.4525002 49.35067846 155.58221436 44.56671143 C153.21152684 43.68479338 150.84337958 42.79601907 148.47772217 41.9006958 C127.71971511 34.06738055 106.68927039 28.13194316 85.16680908 22.78500366 C83.14724942 22.27731673 81.13265203 21.75364725 79.11883545 21.22369385 C68.06388043 18.35508264 56.91451388 16.21131314 45.67645264 14.19073486 C44.2191423 13.92735825 44.2191423 13.92735825 42.73239136 13.65866089 C28.61534813 11.11851743 14.56502285 8.84538133 0.27069092 7.56085205 C-3.17560295 7.23153836 -6.60845396 6.82595199 -10.04620361 6.41729736 C-49.84778506 2.00210158 -90.99829408 2.60943729 -130.82354736 6.50323486 Z " fill="#072332" transform="translate(893.9485473632813,171.74676513671875)"/>
</svg>
